<?xml version="1.0" encoding="UTF-8" standalone="no"?>
<svg
   xmlns:dc="http://purl.org/dc/elements/1.1/"
   xmlns:cc="http://creativecommons.org/ns#"
   xmlns:rdf="http://www.w3.org/1999/02/22-rdf-syntax-ns#"
   xmlns:svg="http://www.w3.org/2000/svg"
   xmlns="http://www.w3.org/2000/svg"
   xmlns:sodipodi="http://sodipodi.sourceforge.net/DTD/sodipodi-0.dtd"
   xmlns:inkscape="http://www.inkscape.org/namespaces/inkscape"
   height="312.5"
   version="1.1"
   viewBox="0 0 312.5 312.5"
   width="312.5"
   id="svg2"
   inkscape:version="0.91 r13725"
   sodipodi:docname="linkedin_icon.svg">
  <metadata
     id="metadata16">
    <rdf:RDF>
      <cc:Work
         rdf:about="">
        <dc:format>image/svg+xml</dc:format>
        <dc:type
           rdf:resource="http://purl.org/dc/dcmitype/StillImage" />
        <dc:title></dc:title>
      </cc:Work>
    </rdf:RDF>
  </metadata>
  <sodipodi:namedview
     pagecolor="#ffffff"
     bordercolor="#666666"
     borderopacity="1"
     objecttolerance="10"
     gridtolerance="10"
     guidetolerance="10"
     inkscape:pageopacity="0"
     inkscape:pageshadow="2"
     inkscape:window-width="1280"
     inkscape:window-height="752"
     id="namedview14"
     showgrid="false"
     fit-margin-top="0"
     fit-margin-left="0"
     fit-margin-right="0"
     fit-margin-bottom="0"
     inkscape:zoom="0.43457604"
     inkscape:cx="121.12802"
     inkscape:cy="-47.963752"
     inkscape:window-x="0"
     inkscape:window-y="1"
     inkscape:window-maximized="1"
     inkscape:current-layer="Artboard-1" />
  <desc
     id="desc6" />
  <defs
     id="defs8" />
  <g
     id="miu"
     style="fill:none;fill-rule:evenodd;stroke:none;stroke-width:1"
     transform="translate(144.25,144.25)">
    <g
       id="Artboard-1"
       transform="translate(-899,-659)">
      <g
         id="slice"
         transform="translate(215,119)" />
      <path
         d="m 911,827.25 c 86.29446,0 156.25,-69.95554 156.25,-156.25 0,-86.29446 -69.95554,-156.25 -156.25,-156.25 -86.29446,0 -156.25,69.95554 -156.25,156.25 0,86.29446 69.95554,156.25 156.25,156.25 z m 85.22727,-99.43182 -34.53338,0 0,-49.93466 c 0,-13.07031 -5.40184,-21.99304 -17.28054,-21.99304 -9.08565,0 -14.13849,6.02117 -16.49034,11.82415 -0.8821,2.08296 -0.74432,4.98438 -0.74432,7.88594 l 0,52.21761 -34.21179,0 c 0,0 0.44034,-88.4544 0,-96.49488 l 34.21179,0 0,15.14417 c 2.02117,-6.62159 12.95355,-16.07187 30.39929,-16.07187 21.64432,0 38.64915,13.87983 38.64915,43.76789 l 1.4e-4,53.65469 z m -137.85795,-108.56463 -0.22017,0 c -11.02415,0 -18.17159,-7.37656 -18.17159,-16.72685 0,-9.5321 7.35866,-16.75397 18.60341,-16.75397 11.23551,0 18.14403,7.20369 18.36448,16.7267 0,9.35029 -7.12897,16.75412 -18.57585,16.75412 z m -14.45085,12.06975 30.4544,0 0,96.49488 -30.4544,0 0,-96.49488 z"
         id="circle-social-linkedin-glyph"
         inkscape:connector-curvature="0"
         style="fill:#000000" />
    </g>
  </g>
</svg>
