<?xml version="1.0" encoding="UTF-8" standalone="no"?>
<!-- Created with Inkscape (http://www.inkscape.org/) -->

<svg
   xmlns:dc="http://purl.org/dc/elements/1.1/"
   xmlns:cc="http://creativecommons.org/ns#"
   xmlns:rdf="http://www.w3.org/1999/02/22-rdf-syntax-ns#"
   xmlns:svg="http://www.w3.org/2000/svg"
   xmlns="http://www.w3.org/2000/svg"
   xmlns:sodipodi="http://sodipodi.sourceforge.net/DTD/sodipodi-0.dtd"
   xmlns:inkscape="http://www.inkscape.org/namespaces/inkscape"
   sodipodi:docname="logo_menu.svg"
   inkscape:version="0.91 r13725"
   version="1.1"
   id="svg6364"
   viewBox="0 0 755.29195 253.53201"
   height="253.532"
   width="755.29193">
  <sodipodi:namedview
     units="px"
     showborder="false"
     inkscape:window-maximized="1"
     inkscape:window-y="30"
     inkscape:window-x="0"
     inkscape:window-height="1170"
     inkscape:window-width="1920"
     fit-margin-bottom="0"
     fit-margin-right="0"
     fit-margin-left="0"
     fit-margin-top="0"
     showgrid="false"
     inkscape:current-layer="layer1"
     inkscape:document-units="px"
     inkscape:cy="180.44548"
     inkscape:cx="241.14568"
     inkscape:zoom="4.9713417"
     inkscape:pageshadow="2"
     inkscape:pageopacity="0.0"
     borderopacity="1.0"
     bordercolor="#666666"
     pagecolor="#ffffff"
     id="base"
     showguides="false" />
  <defs
     id="defs6366" />
  <metadata
     id="metadata6369">
    <rdf:RDF>
      <cc:Work
         rdf:about="">
        <dc:format>image/svg+xml</dc:format>
        <dc:type
           rdf:resource="http://purl.org/dc/dcmitype/StillImage" />
        <dc:title />
      </cc:Work>
    </rdf:RDF>
  </metadata>
  <g
     id="layer1"
     inkscape:groupmode="layer"
     inkscape:label="Layer 1"
     transform="translate(-2.8389787e-5,3.5320582)">
    <g
       id="PADS"
       style="fill:#408000;fill-opacity:1;fill-rule:evenodd;stroke:#408000;stroke-width:0;stroke-linecap:round;stroke-linejoin:round;stroke-opacity:1">
      <polyline
         class="PAD"
         points="32.74619066,201.27021418 32.74619066,190.03953409 68.97623773,190.03953409 68.97623773,201.27021418 32.74619066,201.27021418"
         id="PAD1" />
      <polyline
         class="PAD"
         points="32.74619066,217.5134577 32.74619066,206.28277761 68.97623773,206.28277761 68.97623773,217.5134577 32.74619066,217.5134577"
         id="PAD2" />
      <polyline
         class="PAD"
         points="32.74619066,233.75670122 32.74619066,222.52602113 68.97623773,222.52602113 68.97623773,233.75670122 32.74619066,233.75670122"
         id="PAD3" />
      <polyline
         class="PAD"
         points="32.74619066,249.99994474 32.74619066,238.76926465 68.97623773,238.76926465 68.97623773,249.99994474 32.74619066,249.99994474"
         id="PAD4" />
      <polyline
         class="PAD"
         points="142.6418851,249.99994474 142.6418851,238.76926465 178.87193217,238.76926465 178.87193217,249.99994474 142.6418851,249.99994474"
         id="PAD5" />
      <polyline
         class="PAD"
         points="142.6418851,233.75670122 142.6418851,222.52602113 178.87193217,222.52602113 178.87193217,233.75670122 142.6418851,233.75670122"
         id="PAD6" />
      <polyline
         class="PAD"
         points="142.6418851,217.5134577 142.6418851,206.28277761 178.87193217,206.28277761 178.87193217,217.5134577 142.6418851,217.5134577"
         id="PAD7" />
      <polyline
         class="PAD"
         points="142.6418851,201.27021418 142.6418851,190.03953409 178.87193217,190.03953409 178.87193217,201.27021418 142.6418851,201.27021418"
         id="PAD8" />
    </g>
    <g
       id="TRACES"
       style="fill-opacity:0;stroke:#408000;stroke-width:4;stroke-linejoin:round;stroke-opacity:1">
      <path
         id="TRACE1"
         d="m 27.2342,140.73947 43.7101,0 12.69005,12.69003 0,31.72515 -10.59621,10.53273 -22.20759,0"
         inkscape:connector-curvature="0" />
      <path
         d="m 14.54413,89.97933 24.67511,0 50.76014,50.76014 0,63.45017 -7.80438,7.74095 -31.34445,0"
         id="TRACE2"
         inkscape:connector-curvature="0" />
      <path
         d="m 39.92416,39.2192 5.64012,0 50.7601,50.76013 0,126.90038 -11.29412,11.2307 -34.19971,0"
         id="TRACE3"
         inkscape:connector-curvature="0" />
      <path
         id="TRACE4"
         d="m 82.35652,12.56126 20.31289,20.3129 0,190.35055 -21.19237,21.12894 -30.64649,0"
         inkscape:connector-curvature="0" />
      <path
         d="m 129.42835,12.46025 -20.41398,20.41391 0,190.35055 21.12894,21.12894 30.64649,0"
         id="TRACE5"
         inkscape:connector-curvature="0" />
      <path
         d="m 171.89731,39.1926 -5.77768,0.0266 -50.76022,50.76013 0,126.90038 11.23068,11.2307 34.19971,0"
         id="TRACE6"
         inkscape:connector-curvature="0" />
      <path
         d="m 197.10144,89.97933 -24.63689,0 -50.76014,50.76014 0,63.45017 7.74094,7.74095 31.34445,0"
         id="TRACE7"
         inkscape:connector-curvature="0" />
      <path
         d="m 184.41148,140.73947 -43.67196,0 -12.69008,12.69003 0,31.72515 10.53277,10.53273 22.20759,0"
         id="TRACE8"
         inkscape:connector-curvature="0" />
    </g>
    <path
       id="VIA1"
       d="m 20.185132,133.24755 c -4.136186,0.002 -7.488752,3.35447 -7.490654,7.49065 0.0019,4.13619 3.354468,7.48876 7.490654,7.49066 4.136185,-0.002 7.488751,-3.35447 7.490653,-7.49066 -0.0019,-4.13618 -3.354468,-7.48875 -7.490653,-7.49065 0,0 0,0 0,0 m 0,2.49229 c 1.325833,-6e-4 2.597537,0.52581 3.535043,1.46332 0.937505,0.93751 1.463922,2.20921 1.463315,3.53504 6.05e-4,1.32584 -0.525812,2.59754 -1.463318,3.53504 -0.937505,0.93751 -2.209208,1.46393 -3.53504,1.46332 -1.325832,6.1e-4 -2.597536,-0.52581 -3.535041,-1.46332 -0.937505,-0.9375 -1.463922,-2.2092 -1.463317,-3.53504 -6.07e-4,-1.32583 0.525809,-2.59753 1.463315,-3.53504 0.937505,-0.93751 2.209209,-1.46392 3.535043,-1.46332 0,0 0,0 0,0"
       style="fill:#ffd700;fill-opacity:1;stroke:#c2c2c2;stroke-width:0;stroke-linecap:round;stroke-linejoin:round;stroke-opacity:1"
       inkscape:connector-curvature="0" />
    <path
       id="VIA2"
       d="m 7.49064,82.47984 c -1.9887485,9.2e-4 -3.8955771,0.792299 -5.30054,2.19985 -1.40496287,1.407551 -2.19283095,3.315833 -2.19009,5.30458 0.00189387,4.136182 3.3544475,7.488754 7.49063,7.49067 1.9887537,0.0027 3.897042,-0.785133 5.304594,-2.190104 1.407553,-1.404972 2.198927,-3.311811 2.199836,-5.300566 0.0027,-1.991139 -0.787015,-3.901516 -2.194965,-5.309465 -1.407949,-1.40795 -3.3183259,-2.197711 -5.309465,-2.194965 0,0 0,0 0,0 m 0,2.50606 c 1.3258381,-6.1e-4 2.597549,0.525806 3.535059,1.463314 0.93751,0.937508 1.463929,2.209218 1.463321,3.535056 -0.0063,2.755665 -2.242708,4.985856 -4.99838,4.98458 C 4.73498,94.97015 2.4986328,92.739923 2.49229,89.98427 2.4916822,88.658437 3.0180968,87.386732 3.9556004,86.449225 4.8931041,85.511717 6.1648071,84.985298 7.49064,84.9859 c 0,0 0,0 0,0"
       style="fill:#ffd700;fill-opacity:1;stroke:#c2c2c2;stroke-width:0;stroke-linecap:round;stroke-linejoin:round;stroke-opacity:1"
       inkscape:connector-curvature="0" />
    <path
       id="VIA3"
       d="m 32.866918,31.724414 c -4.136186,0.0019 -7.488752,3.354468 -7.490653,7.490653 0.0019,4.136186 3.354467,7.488752 7.490653,7.490654 1.98875,0.0027 3.897034,-0.785133 5.304584,-2.1901 1.407551,-1.404968 2.198926,-3.311802 2.199838,-5.300554 -9.12e-4,-1.988751 -0.792287,-3.895585 -2.199838,-5.300553 -1.40755,-1.404968 -3.315834,-2.192839 -5.304584,-2.1901 0,0 0,0 0,0 m 0,2.492295 c 1.325833,-6.06e-4 2.597536,0.525811 3.535042,1.463317 0.937505,0.937505 1.463922,2.209209 1.463317,3.535041 6.05e-4,1.325833 -0.525812,2.597537 -1.463317,3.535042 -0.937506,0.937506 -2.209209,1.463922 -3.535042,1.463317 -2.75566,-0.0063 -4.985854,-2.242691 -4.984589,-4.998359 -0.0013,-2.755667 2.228929,-4.992021 4.984589,-4.998358 0,0 0,0 0,0"
       style="fill:#ffd700;fill-opacity:1;stroke:#c2c2c2;stroke-width:0;stroke-linecap:round;stroke-linejoin:round;stroke-opacity:1"
       inkscape:connector-curvature="0" />
    <path
       id="VIA4"
       d="m 77.2887,0 c -4.136194,0.00189389 -7.488771,3.3544658 -7.49067,7.49066 -0.0027,1.9887537 0.785133,3.897042 2.190104,5.304594 1.404972,1.407553 3.311811,2.198927 5.300566,2.199836 1.988754,-9.12e-4 3.89559,-0.792287 5.300559,-2.199839 C 83.994229,11.387699 84.782101,9.479412 84.77936,7.49066 84.777461,3.3544697 81.42489,0.0018994 77.2887,0 c 0,0 0,0 0,0 m 0,2.49233 c 1.325824,-5.998e-4 2.597519,0.5258155 3.535019,1.463314 0.9375,0.9374984 1.463918,2.2091917 1.463321,3.535016 6.1e-4,1.3258329 -0.525802,2.597539 -1.463303,3.535048 -0.937502,0.93751 -2.209204,1.463932 -3.535037,1.463332 -1.325838,6.08e-4 -2.597548,-0.525811 -3.535056,-1.463321 C 72.816136,10.088209 72.28972,8.8164981 72.29033,7.49066 72.289733,6.1648305 72.816155,4.8931327 73.753662,3.9556334 74.691168,3.018134 75.962871,2.4917222 77.2887,2.49233 c 0,0 0,0 0,0"
       style="fill:#ffd700;fill-opacity:1;stroke:#c2c2c2;stroke-width:0;stroke-linecap:round;stroke-linejoin:round;stroke-opacity:1"
       inkscape:connector-curvature="0" />
    <path
       id="VIA5"
       d="m 134.39117,0 c -4.13619,0.0018994 -7.48876,3.3544697 -7.49066,7.49066 -0.003,1.988752 0.78513,3.897039 2.1901,5.304591 1.40497,1.407552 3.31181,2.198927 5.30056,2.199839 1.98876,-9.09e-4 3.89559,-0.792283 5.30057,-2.199836 1.40497,-1.407552 2.19284,-3.3158403 2.1901,-5.304594 -0.002,-4.1361942 -3.35448,-7.48876611 -7.49067,-7.49066 0,0 0,0 0,0 m 0,2.49233 c 1.32582,-5.998e-4 2.59752,0.5258155 3.53502,1.463314 0.9375,0.9374984 1.46392,2.2091917 1.46332,3.535016 6.1e-4,1.3258329 -0.5258,2.597539 -1.4633,3.535048 -0.93751,0.93751 -2.20921,1.463932 -3.53504,1.463332 -1.32584,6.1e-4 -2.59755,-0.525807 -3.53506,-1.463317 -0.93751,-0.937511 -1.46393,-2.2092232 -1.46332,-3.535063 -6e-4,-1.3258312 0.52583,-2.5975306 1.46334,-3.5350302 0.9375,-0.9374996 2.20921,-1.4639102 3.53504,-1.4632998 0,0 0,0 0,0"
       style="fill:#ffd700;fill-opacity:1;stroke:#c2c2c2;stroke-width:0;stroke-linecap:round;stroke-linejoin:round;stroke-opacity:1"
       inkscape:connector-curvature="0" />
    <path
       id="VIA6"
       d="m 178.81072,31.724414 c -4.13618,0.0019 -7.48875,3.354468 -7.49065,7.490653 0.002,4.136186 3.35447,7.488752 7.49065,7.490654 4.13619,-0.0019 7.48876,-3.354468 7.49066,-7.490654 -0.002,-4.136185 -3.35447,-7.488751 -7.49066,-7.490653 0,0 0,0 0,0 m 0,2.492295 c 1.32584,-6.07e-4 2.59754,0.52581 3.53505,1.463315 0.93751,0.937506 1.46392,2.20921 1.46332,3.535043 6e-4,1.325834 -0.52581,2.597538 -1.46332,3.535044 -0.93751,0.937505 -2.20921,1.463922 -3.53505,1.463315 -1.32583,6.05e-4 -2.59753,-0.525813 -3.53504,-1.463318 -0.9375,-0.937505 -1.46392,-2.209208 -1.46331,-3.535041 -6.1e-4,-1.325832 0.52581,-2.597535 1.46331,-3.53504 0.93751,-0.937506 2.20921,-1.463923 3.53504,-1.463318 0,0 0,0 0,0"
       style="fill:#ffd700;fill-opacity:1;stroke:#c2c2c2;stroke-width:0;stroke-linecap:round;stroke-linejoin:round;stroke-opacity:1"
       inkscape:connector-curvature="0" />
    <path
       id="VIA7"
       d="m 204.18919,82.47984 c -1.98875,9.12e-4 -3.89559,0.792287 -5.30056,2.199839 -1.40497,1.407552 -2.19284,3.315839 -2.1901,5.304591 0.002,4.136194 3.35447,7.488771 7.49066,7.49067 4.1362,-0.0019 7.48878,-3.354472 7.49067,-7.49067 0.003,-1.988754 -0.78513,-3.897042 -2.1901,-5.304594 -1.40498,-1.407553 -3.31181,-2.198927 -5.30057,-2.199836 0,0 0,0 0,0 m 0,2.50606 c 1.32584,-6.13e-4 2.59755,0.525802 3.53507,1.46331 0.93751,0.937509 1.46393,2.20922 1.46332,3.53506 -0.006,2.755669 -2.24271,4.985861 -4.99839,4.98458 -2.75566,0.0013 -4.992,-2.228931 -4.99834,-4.98458 -6.1e-4,-1.325831 0.52581,-2.597535 1.46331,-3.535042 0.9375,-0.937507 2.2092,-1.463928 3.53503,-1.463328 0,0 0,0 0,0"
       style="fill:#ffd700;fill-opacity:1;stroke:#c2c2c2;stroke-width:0;stroke-linecap:round;stroke-linejoin:round;stroke-opacity:1"
       inkscape:connector-curvature="0" />
    <path
       id="VIA8"
       d="m 191.49364,133.24831 c -4.13619,0.002 -7.48876,3.35447 -7.49066,7.49066 0.002,4.13619 3.35447,7.48876 7.49066,7.49066 1.98875,0.003 3.89704,-0.78513 5.30459,-2.1901 1.40755,-1.40497 2.19893,-3.31181 2.19984,-5.30056 -9.1e-4,-1.98875 -0.79229,-3.89559 -2.19984,-5.30056 -1.40755,-1.40497 -3.31584,-2.19284 -5.30459,-2.1901 0,0 0,0 0,0 m 0,2.49229 c 1.32584,-6.1e-4 2.59755,0.52581 3.53506,1.46331 0.93751,0.93751 1.46393,2.20922 1.46332,3.53506 6e-4,1.32583 -0.52582,2.59753 -1.46333,3.53504 -0.93751,0.9375 -2.20922,1.46391 -3.53505,1.4633 -2.75566,-0.006 -4.98585,-2.24268 -4.9846,-4.99834 -0.001,-2.75568 2.22893,-4.99204 4.9846,-4.99837 0,0 0,0 0,0"
       style="fill:#ffd700;fill-opacity:1;stroke:#c2c2c2;stroke-width:0;stroke-linecap:round;stroke-linejoin:round;stroke-opacity:1"
       inkscape:connector-curvature="0" />
    <g
       style="font-style:normal;font-variant:normal;font-weight:normal;font-stretch:normal;font-size:20px;line-height:125%;font-family:Gidole;-inkscape-font-specification:'Gidole, Normal';text-align:start;letter-spacing:0px;word-spacing:0px;writing-mode:lr-tb;text-anchor:start;fill:#000000;fill-opacity:1;stroke:none;stroke-width:1px;stroke-linecap:butt;stroke-linejoin:miter;stroke-opacity:1"
       id="TEXT5"
       onclick="">
      <path
         d="m 150.31934,10.811204 q 0,1.037597 0.68359,1.757812 0.6958,0.720215 1.94092,0.720215 1.00097,0 1.78222,-0.488281 0.78125,-0.488282 1.09864,-1.477051 0.10986,-0.354004 0.15869,-0.817871 0.061,-0.463867 0.061,-0.8666995 0.0122,-0.415039 0.0122,-1.3427734 l -1.77002,0 q -1.75781,0 -2.31933,0.1708984 -0.79346,0.2441407 -1.22071,0.8789063 -0.42724,0.6225586 -0.42724,1.4648442 z m 7.56836,-4.0283208 0,7.9467778 -1.83106,0 0,-1.403809 q -1.3916,1.599121 -3.35693,1.599121 -1.85547,0 -3.03955,-1.171875 -1.17188,-1.184082 -1.17188,-2.941894 0,-1.3183598 0.74463,-2.3315434 0.75684,-1.0253907 2.12402,-1.4404297 0.40284,-0.1220703 0.89112,-0.1831055 0.48828,-0.061035 0.85449,-0.061035 0.36621,-0.012207 1.11084,-0.012207 l 1.84326,0 q 0,-0.9765625 -0.0366,-1.3916015 -0.0244,-0.4272461 -0.15869,-0.78125 -0.30518,-0.8178711 -1.02539,-1.2329102 -0.72022,-0.4150391 -1.64795,-0.4150391 -1.35498,0 -3.21045,0.8911133 l -0.6958,-1.5136719 q 2.22168,-1.0131836 3.90625,-1.0131836 1.62353,0 2.84424,0.78125 1.2207,0.78125 1.66015,2.2338868 0.19532,0.6469726 0.19532,2.4414062 z"
         style="font-size:25px"
         id="path3485"
         inkscape:connector-curvature="0" />
      <path
         d="m 166.98193,1.3263402 q 1.24512,0 2.2583,0.5371094 1.01319,0.5371094 1.58692,1.4160156 0.61035,0.9399415 0.79346,2.0263672 0.1831,1.0742188 0.1831,2.8198243 0,1.7456054 -0.1831,2.8320313 -0.18311,1.074219 -0.79346,2.01416 -0.57373,0.878906 -1.58692,1.416016 -1.01318,0.537109 -2.2583,0.537109 -2.03857,0 -3.479,-1.599121 l 0,1.403809 -1.83106,0 0,-18.2617192 1.83106,0 0,6.4575195 q 1.44043,-1.5991211 3.479,-1.5991211 z m 2.2583,2.8320313 q -0.86669,-1.1962891 -2.50244,-1.1962891 -1.63574,0 -2.50244,1.1962891 -0.46387,0.6347656 -0.59814,1.5380859 -0.13428,0.9033203 -0.13428,2.4291993 0,1.5258789 0.13428,2.4291993 0.13427,0.90332 0.59814,1.538086 0.8667,1.196289 2.50244,1.196289 1.63575,0 2.50244,-1.196289 0.46387,-0.634766 0.59815,-1.538086 0.13428,-0.9033204 0.13428,-2.4291993 0,-1.525879 -0.13428,-2.4291993 -0.13428,-0.9033203 -0.59815,-1.5380859 z"
         style="font-size:25px"
         id="path3487"
         inkscape:connector-curvature="0" />
      <path
         d="m 182.48486,3.9264379 q -0.84228,-0.9643555 -2.4292,-0.9643555 -1.58691,0 -2.4292,0.9643555 -0.32959,0.378418 -0.5371,0.8544922 -0.19532,0.4638672 -0.28077,1.0986328 -0.0732,0.6225586 -0.0977,1.0498047 -0.0122,0.4150391 -0.0122,1.1962891 0,0.78125 0.0122,1.208496 0.0244,0.4150391 0.0977,1.0498043 0.0854,0.622559 0.28077,1.098633 0.20751,0.463867 0.5371,0.842285 0.84229,0.964356 2.4292,0.964356 1.58692,0 2.4292,-0.964356 0.32959,-0.378418 0.52491,-0.842285 0.20752,-0.476074 0.28076,-1.098633 0.0855,-0.6347652 0.0977,-1.0498043 0.0244,-0.427246 0.0244,-1.208496 0,-0.78125 -0.0244,-1.1962891 -0.0122,-0.4272461 -0.0977,-1.0498047 -0.0732,-0.6347656 -0.28076,-1.0986328 -0.19532,-0.4760742 -0.52491,-0.8544922 z M 177.8584,1.7535863 q 0.98877,-0.4272461 2.19726,-0.4272461 1.2085,0 2.19727,0.4272461 0.98877,0.4150391 1.62353,1.1108399 0.48829,0.5371094 0.78125,1.171875 0.30518,0.6225586 0.41504,1.4038086 0.12207,0.7690429 0.14649,1.2817383 0.0244,0.5004882 0.0244,1.4038086 0,0.9033203 -0.0244,1.4160156 -0.0244,0.5004887 -0.14649,1.2817387 -0.10986,0.769043 -0.41504,1.403808 -0.29296,0.622559 -0.78125,1.159668 -0.63476,0.695801 -1.62353,1.123047 -0.98877,0.415039 -2.19727,0.415039 -1.20849,0 -2.19726,-0.415039 -0.98877,-0.427246 -1.62354,-1.123047 -0.48828,-0.537109 -0.79345,-1.159668 -0.29297,-0.634765 -0.41504,-1.403808 -0.10987,-0.78125 -0.13428,-1.2817387 -0.0244,-0.5126953 -0.0244,-1.4160156 0,-0.9033204 0.0244,-1.4038086 0.0244,-0.5126954 0.13428,-1.2817383 0.12207,-0.78125 0.41504,-1.4038086 0.30517,-0.6347656 0.79345,-1.171875 0.63477,-0.6958008 1.62354,-1.1108399 z"
         style="font-size:25px"
         id="path3489"
         inkscape:connector-curvature="0" />
      <path
         d="m 188.60059,1.5216527 1.83105,0 0,7.6293946 q 0,1.6479487 0.18311,2.2094727 0.30517,0.939941 1.06201,1.44043 0.75683,0.488281 1.7456,0.488281 0.98877,0 1.74561,-0.488281 0.75683,-0.500489 1.06201,-1.44043 0.18311,-0.561524 0.18311,-2.2094727 l 0,-7.6293946 1.83105,0 0,7.7514649 q 0,0.6469726 -0.0122,1.0009764 -0.0122,0.341797 -0.0855,0.854492 -0.0732,0.512696 -0.23193,0.927735 -0.51269,1.391601 -1.68457,2.13623 -1.15967,0.732422 -2.80762,0.732422 -1.64795,0 -2.81982,-0.732422 -1.15967,-0.744629 -1.67236,-2.13623 -0.1587,-0.415039 -0.23194,-0.927735 -0.0732,-0.512695 -0.0855,-0.854492 -0.0122,-0.3540038 -0.0122,-1.0009764 l 0,-7.7514649 z"
         style="font-size:25px"
         id="path3491"
         inkscape:connector-curvature="0" />
      <path
         d="m 202.41895,11.03093 0,-7.9956054 -1.83106,0 0,-1.5136719 1.83106,0 0,-2.8564453 1.83105,0 0,2.8564453 2.44141,0 0,1.5136719 -2.44141,0 0,7.9956054 q 0,1.318359 0.10986,1.586914 0.28076,0.671387 1.04981,0.671387 0.63476,0 1.3916,-0.390625 l 0.70801,1.513672 q -1.17188,0.512695 -2.22168,0.512695 -1.0376,0 -1.75781,-0.500488 -0.70801,-0.500489 -0.97657,-1.428223 -0.13427,-0.463867 -0.13427,-1.965332 z"
         style="font-size:25px"
         id="path3493"
         inkscape:connector-curvature="0" />
    </g>
    <g
       style="font-style:normal;font-variant:normal;font-weight:normal;font-stretch:normal;font-size:20px;line-height:125%;font-family:Gidole;-inkscape-font-specification:'Gidole, Normal';text-align:start;letter-spacing:0px;word-spacing:0px;writing-mode:lr-tb;text-anchor:start;fill:#000000;fill-opacity:1;stroke:none;stroke-width:1px;stroke-linecap:butt;stroke-linejoin:miter;stroke-opacity:1"
       id="TEXT6">
      <path
         d="m 196.47754,46.464036 q -1.41602,0 -2.50244,-0.524903 -1.08643,-0.537109 -1.72119,-1.464844 -0.45166,-0.646972 -0.6836,-1.538085 -0.21972,-0.891114 -0.25635,-1.501465 -0.0244,-0.622559 -0.0244,-1.77002 0,-0.939941 0.0122,-1.416015 0.0244,-0.488282 0.12207,-1.171875 0.10986,-0.695801 0.31738,-1.257325 0.5127,-1.342773 1.70899,-2.148437 1.20849,-0.805664 2.7832,-0.805664 1.55029,0 2.75879,0.817871 1.2207,0.805664 1.7456,2.148437 0.30518,0.769043 0.36621,1.538086 0.0732,0.756836 0.0732,2.282715 l 0,0.402832 -8.05664,0 q 0,0.793457 0.0244,1.281738 0.0244,0.476075 0.1831,1.159668 0.1709,0.671387 0.48829,1.123047 0.84228,1.208496 2.66113,1.208496 1.62353,0 3.49121,-0.891113 l 0.6958,1.513672 q -2.16064,1.013184 -4.18701,1.013184 z m 2.86865,-7.922364 q -0.0244,-1.391601 -0.354,-2.209472 -0.32959,-0.842286 -1.07422,-1.330567 -0.73242,-0.500488 -1.68457,-0.500488 -0.98877,0 -1.70899,0.500488 -0.72021,0.488281 -1.03759,1.31836 -0.32959,0.854492 -0.35401,2.221679 l 6.21338,0 z"
         style="font-size:25px"
         id="path3496"
         inkscape:connector-curvature="0" />
      <path
         d="m 213.05469,46.268723 -2.06299,0 -2.88086,-5.13916 -2.88086,5.13916 -2.06299,0 3.90625,-6.652832 -3.84521,-6.555176 2.06299,0 2.81982,5.041504 2.81982,-5.041504 2.06299,0 -3.84521,6.555176 3.90625,6.652832 z"
         style="font-size:25px"
         id="path3498"
         inkscape:connector-curvature="0" />
      <path
         d="m 221.19678,32.865403 q 1.24511,0 2.2583,0.537109 1.01318,0.537109 1.58691,1.416016 0.61035,0.939941 0.79346,2.026367 0.1831,1.074219 0.1831,2.819824 0,1.745606 -0.1831,2.832031 -0.18311,1.074219 -0.79346,2.014161 -0.57373,0.878906 -1.58691,1.416015 -1.01319,0.53711 -2.2583,0.53711 -2.03858,0 -3.47901,-1.599122 l 0,6.45752 -1.83105,0 0,-18.261719 1.83105,0 0,1.403809 q 1.44043,-1.599121 3.47901,-1.599121 z m 2.2583,2.832031 q -0.8667,-1.196289 -2.50244,-1.196289 -1.63575,0 -2.50244,1.196289 -0.46387,0.634766 -0.59815,1.538086 -0.13428,0.90332 -0.13428,2.429199 0,1.525879 0.13428,2.429199 0.13428,0.903321 0.59815,1.538086 0.86669,1.196289 2.50244,1.196289 1.63574,0 2.50244,-1.196289 0.46387,-0.634765 0.59814,-1.538086 0.13428,-0.90332 0.13428,-2.429199 0,-1.525879 -0.13428,-2.429199 -0.13427,-0.90332 -0.59814,-1.538086 z"
         style="font-size:25px"
         id="path3500"
         inkscape:connector-curvature="0" />
      <path
         d="m 234.27051,46.464036 q -1.41602,0 -2.50244,-0.524903 -1.08643,-0.537109 -1.7212,-1.464844 -0.45166,-0.646972 -0.68359,-1.538085 -0.21973,-0.891114 -0.25635,-1.501465 -0.0244,-0.622559 -0.0244,-1.77002 0,-0.939941 0.0122,-1.416015 0.0244,-0.488282 0.12207,-1.171875 0.10986,-0.695801 0.31738,-1.257325 0.51269,-1.342773 1.70898,-2.148437 1.2085,-0.805664 2.78321,-0.805664 1.55029,0 2.75879,0.817871 1.2207,0.805664 1.7456,2.148437 0.30518,0.769043 0.36621,1.538086 0.0732,0.756836 0.0732,2.282715 l 0,0.402832 -8.05664,0 q 0,0.793457 0.0244,1.281738 0.0244,0.476075 0.1831,1.159668 0.1709,0.671387 0.48828,1.123047 0.84229,1.208496 2.66114,1.208496 1.62353,0 3.49121,-0.891113 l 0.6958,1.513672 q -2.16065,1.013184 -4.18701,1.013184 z m 2.86865,-7.922364 q -0.0244,-1.391601 -0.354,-2.209472 -0.32959,-0.842286 -1.07422,-1.330567 -0.73242,-0.500488 -1.68457,-0.500488 -0.98877,0 -1.70899,0.500488 -0.72021,0.488281 -1.03759,1.31836 -0.32959,0.854492 -0.35401,2.221679 l 6.21338,0 z"
         style="font-size:25px"
         id="path3502"
         inkscape:connector-curvature="0" />
      <path
         d="m 244.23145,34.452317 q 1.33056,-1.586914 3.11279,-1.586914 0.50049,0 1.12305,0.134277 l -0.26856,1.611328 q -0.76904,-0.109863 -1.09863,-0.109863 -0.92774,0 -1.61133,0.439453 -0.68359,0.439453 -0.98877,1.184082 -0.26855,0.646973 -0.26855,2.294922 l 0,7.849121 -1.83106,0 0,-13.208008 1.83106,0 0,1.391602 z"
         style="font-size:25px"
         id="path3504"
         inkscape:connector-curvature="0" />
      <path
         d="m 251.50684,42.569993 0,-7.995606 -1.83106,0 0,-1.513672 1.83106,0 0,-2.856445 1.83105,0 0,2.856445 2.44141,0 0,1.513672 -2.44141,0 0,7.995606 q 0,1.318359 0.10986,1.586914 0.28077,0.671386 1.04981,0.671386 0.63476,0 1.3916,-0.390625 l 0.70801,1.513672 q -1.17188,0.512696 -2.22168,0.512696 -1.0376,0 -1.75781,-0.500489 -0.70801,-0.500488 -0.97657,-1.428222 -0.13427,-0.463868 -0.13427,-1.965332 z"
         style="font-size:25px"
         id="path3506"
         inkscape:connector-curvature="0" />
      <path
         d="m 259.24609,29.081223 q 0.32959,-0.32959 0.83008,-0.32959 0.50049,0 0.81787,0.32959 0.32959,0.317383 0.32959,0.817871 0,0.500488 -0.32959,0.830078 -0.31738,0.317383 -0.81787,0.317383 -0.50049,0 -0.83008,-0.317383 -0.31738,-0.32959 -0.31738,-0.830078 0,-0.500488 0.31738,-0.817871 z m 1.74561,17.1875 -1.83106,0 0,-13.208008 1.83106,0 0,13.208008 z"
         style="font-size:25px"
         id="path3508"
         inkscape:connector-curvature="0" />
      <path
         d="m 268.84082,32.865403 q 1.81885,0 4.18701,1.000976 l -0.62256,1.550293 q -2.14843,-0.915527 -3.56445,-0.915527 -0.70801,0 -1.24512,0.207519 -0.53711,0.20752 -0.80566,0.53711 -0.26856,0.32959 -0.40283,0.65918 -0.12207,0.329589 -0.12207,0.646972 0,0.610352 0.32959,1.074219 0.34179,0.45166 0.85449,0.683594 0.50049,0.231933 1.63574,0.402832 1.14746,0.158691 1.9165,0.439453 1.07422,0.402832 1.80665,1.306152 0.73242,0.90332 0.73242,2.136231 0,1.550293 -1.25733,2.709961 -1.25732,1.159668 -3.44238,1.159668 -2.05078,0 -4.61426,-1.135254 l 0.65918,-1.525879 q 2.27051,1.02539 3.95508,1.02539 0.75684,0 1.33057,-0.207519 0.58593,-0.20752 0.90332,-0.549317 0.31738,-0.341796 0.47607,-0.708007 0.15869,-0.378418 0.15869,-0.769043 0,-0.695801 -0.41504,-1.208496 -0.41504,-0.512696 -1.02539,-0.744629 -0.41504,-0.158692 -1.67236,-0.354004 -1.25732,-0.195313 -2.00195,-0.53711 -0.93994,-0.439453 -1.5503,-1.269531 -0.61035,-0.830078 -0.61035,-1.928711 0,-1.501465 1.19629,-2.58789 1.2085,-1.098633 3.21045,-1.098633 z"
         style="font-size:25px"
         id="path3510"
         inkscape:connector-curvature="0" />
      <path
         d="m 281.4873,46.464036 q -1.41601,0 -2.50244,-0.524903 -1.08642,-0.537109 -1.72119,-1.464844 -0.45166,-0.646972 -0.68359,-1.538085 -0.21973,-0.891114 -0.25635,-1.501465 -0.0244,-0.622559 -0.0244,-1.77002 0,-0.939941 0.0122,-1.416015 0.0244,-0.488282 0.12207,-1.171875 0.10987,-0.695801 0.31739,-1.257325 0.51269,-1.342773 1.70898,-2.148437 1.2085,-0.805664 2.7832,-0.805664 1.5503,0 2.75879,0.817871 1.22071,0.805664 1.74561,2.148437 0.30517,0.769043 0.36621,1.538086 0.0732,0.756836 0.0732,2.282715 l 0,0.402832 -8.05664,0 q 0,0.793457 0.0244,1.281738 0.0244,0.476075 0.1831,1.159668 0.1709,0.671387 0.48828,1.123047 0.84229,1.208496 2.66113,1.208496 1.62354,0 3.49122,-0.891113 l 0.6958,1.513672 q -2.16065,1.013184 -4.18702,1.013184 z m 2.86866,-7.922364 q -0.0244,-1.391601 -0.35401,-2.209472 -0.32959,-0.842286 -1.07422,-1.330567 -0.73242,-0.500488 -1.68457,-0.500488 -0.98877,0 -1.70898,0.500488 -0.72022,0.488281 -1.0376,1.31836 -0.32959,0.854492 -0.354,2.221679 l 6.21338,0 z"
         style="font-size:25px"
         id="path3512"
         inkscape:connector-curvature="0" />
    </g>
    <g
       style="font-style:normal;font-variant:normal;font-weight:normal;font-stretch:normal;font-size:20px;line-height:125%;font-family:Gidole;-inkscape-font-specification:'Gidole, Normal';text-align:start;letter-spacing:0px;word-spacing:0px;writing-mode:lr-tb;text-anchor:start;fill:#000000;fill-opacity:1;stroke:none;stroke-width:1px;stroke-linecap:butt;stroke-linejoin:miter;stroke-opacity:1"
       id="TEXT7">
      <path
         d="m 222.3252,83.646653 q 1.81884,0 4.18701,1.000976 l -0.62256,1.550293 q -2.14844,-0.915527 -3.56445,-0.915527 -0.70801,0 -1.24512,0.207519 -0.53711,0.20752 -0.80567,0.53711 -0.26855,0.32959 -0.40283,0.65918 -0.12207,0.329589 -0.12207,0.646972 0,0.610352 0.32959,1.074219 0.3418,0.45166 0.85449,0.683594 0.50049,0.231933 1.63575,0.402832 1.14746,0.158691 1.9165,0.439453 1.07422,0.402832 1.80664,1.306152 0.73242,0.90332 0.73242,2.136231 0,1.550293 -1.25732,2.709961 -1.25733,1.159668 -3.44238,1.159668 -2.05079,0 -4.61426,-1.135254 l 0.65918,-1.525879 q 2.2705,1.02539 3.95508,1.02539 0.75683,0 1.33056,-0.207519 0.58594,-0.20752 0.90332,-0.549317 0.31738,-0.341796 0.47608,-0.708007 0.15869,-0.378418 0.15869,-0.769043 0,-0.695801 -0.41504,-1.208496 -0.41504,-0.512696 -1.02539,-0.744629 -0.41504,-0.158692 -1.67237,-0.354004 -1.25732,-0.195313 -2.00195,-0.53711 -0.93994,-0.439453 -1.55029,-1.269531 -0.61035,-0.830078 -0.61035,-1.928711 0,-1.501465 1.19629,-2.58789 1.20849,-1.098633 3.21045,-1.098633 z"
         style="font-size:25px"
         id="path3515"
         inkscape:connector-curvature="0" />
      <path
         d="m 234.97168,97.245286 q -1.41602,0 -2.50244,-0.524903 -1.08643,-0.537109 -1.72119,-1.464844 -0.45166,-0.646972 -0.6836,-1.538085 -0.21972,-0.891114 -0.25634,-1.501465 -0.0244,-0.622559 -0.0244,-1.77002 0,-0.939941 0.0122,-1.416015 0.0244,-0.488282 0.12207,-1.171875 0.10986,-0.695801 0.31738,-1.257325 0.5127,-1.342773 1.70899,-2.148437 1.20849,-0.805664 2.7832,-0.805664 1.55029,0 2.75879,0.817871 1.2207,0.805664 1.7456,2.148437 0.30518,0.769043 0.36621,1.538086 0.0733,0.756836 0.0733,2.282715 l 0,0.402832 -8.05664,0 q 0,0.793457 0.0244,1.281738 0.0244,0.476075 0.18311,1.159668 0.17089,0.671387 0.48828,1.123047 0.84228,1.208496 2.66113,1.208496 1.62353,0 3.49121,-0.891113 l 0.6958,1.513672 q -2.16064,1.013184 -4.18701,1.013184 z m 2.86865,-7.922364 q -0.0244,-1.391601 -0.354,-2.209472 -0.32959,-0.842286 -1.07422,-1.330567 -0.73242,-0.500488 -1.68457,-0.500488 -0.98877,0 -1.70899,0.500488 -0.72021,0.488281 -1.03759,1.31836 -0.32959,0.854492 -0.35401,2.221679 l 6.21338,0 z"
         style="font-size:25px"
         id="path3517"
         inkscape:connector-curvature="0" />
      <path
         d="m 244.93262,85.233567 q 1.33056,-1.586914 3.11279,-1.586914 0.50049,0 1.12305,0.134277 l -0.26856,1.611328 q -0.76904,-0.109863 -1.09863,-0.109863 -0.92773,0 -1.61133,0.439453 -0.68359,0.439453 -0.98877,1.184082 -0.26855,0.646973 -0.26855,2.294922 l 0,7.849121 -1.83106,0 0,-13.208008 1.83106,0 0,1.391602 z"
         style="font-size:25px"
         id="path3519"
         inkscape:connector-curvature="0" />
      <path
         d="m 255.05225,97.049973 -4.43116,-13.208008 1.91651,0 3.39355,10.864258 3.39356,-10.864258 1.9165,0 -4.43115,13.208008 -1.75781,0 z"
         style="font-size:25px"
         id="path3521"
         inkscape:connector-curvature="0" />
      <path
         d="m 264.09766,79.862473 q 0.32959,-0.32959 0.83007,-0.32959 0.50049,0 0.81788,0.32959 0.32959,0.317383 0.32959,0.817871 0,0.500488 -0.32959,0.830078 -0.31739,0.317383 -0.81788,0.317383 -0.50048,0 -0.83007,-0.317383 -0.31739,-0.32959 -0.31739,-0.830078 0,-0.500488 0.31739,-0.817871 z m 1.7456,17.1875 -1.83105,0 0,-13.208008 1.83105,0 0,13.208008 z"
         style="font-size:25px"
         id="path3523"
         inkscape:connector-curvature="0" />
      <path
         d="m 274.38818,83.646653 q 2.01416,0 3.9917,1.23291 l -0.8667,1.44043 q -1.59912,-1.037598 -3.125,-1.037598 -1.59912,0 -2.49023,1.281738 -0.31738,0.463867 -0.47608,1.220703 -0.15869,0.744629 -0.1831,1.245118 -0.0244,0.500488 -0.0244,1.342773 0,0.952148 0.0122,1.464844 0.0244,0.500488 0.1709,1.208496 0.14649,0.708008 0.43945,1.196289 0.42725,0.708008 1.11084,1.037598 0.6836,0.329589 1.44043,0.329589 0.83008,0 1.7334,-0.317382 0.91553,-0.317383 1.59912,-0.78125 l 0.92774,1.391601 q -0.8667,0.585938 -2.01416,0.964356 -1.14746,0.378418 -2.2461,0.378418 -1.3916,0 -2.49023,-0.610352 -1.09863,-0.622559 -1.67236,-1.623535 -0.39063,-0.683594 -0.58594,-1.501465 -0.19531,-0.830078 -0.23194,-1.428223 -0.0244,-0.610351 -0.0244,-1.708984 0,-0.952148 0.0244,-1.525879 0.0366,-0.585937 0.23194,-1.452637 0.19531,-0.866699 0.58594,-1.513672 0.59814,-1.000976 1.67236,-1.611328 1.08642,-0.622558 2.49023,-0.622558 z"
         style="font-size:25px"
         id="path3525"
         inkscape:connector-curvature="0" />
      <path
         d="m 285.99707,97.245286 q -1.41602,0 -2.50244,-0.524903 -1.08643,-0.537109 -1.72119,-1.464844 -0.45166,-0.646972 -0.6836,-1.538085 -0.21972,-0.891114 -0.25634,-1.501465 -0.0244,-0.622559 -0.0244,-1.77002 0,-0.939941 0.0122,-1.416015 0.0244,-0.488282 0.12207,-1.171875 0.10986,-0.695801 0.31738,-1.257325 0.5127,-1.342773 1.70899,-2.148437 1.20849,-0.805664 2.7832,-0.805664 1.55029,0 2.75879,0.817871 1.2207,0.805664 1.7456,2.148437 0.30518,0.769043 0.36622,1.538086 0.0732,0.756836 0.0732,2.282715 l 0,0.402832 -8.05664,0 q 0,0.793457 0.0244,1.281738 0.0244,0.476075 0.18311,1.159668 0.17089,0.671387 0.48828,1.123047 0.84228,1.208496 2.66113,1.208496 1.62354,0 3.49121,-0.891113 l 0.6958,1.513672 q -2.16064,1.013184 -4.18701,1.013184 z m 2.86865,-7.922364 q -0.0244,-1.391601 -0.354,-2.209472 -0.32959,-0.842286 -1.07422,-1.330567 -0.73242,-0.500488 -1.68457,-0.500488 -0.98877,0 -1.70898,0.500488 -0.72022,0.488281 -1.0376,1.31836 -0.32959,0.854492 -0.35401,2.221679 l 6.21338,0 z"
         style="font-size:25px"
         id="path3527"
         inkscape:connector-curvature="0" />
      <path
         d="m 298.00879,83.646653 q 1.81885,0 4.18701,1.000976 l -0.62256,1.550293 q -2.14844,-0.915527 -3.56445,-0.915527 -0.70801,0 -1.24512,0.207519 -0.53711,0.20752 -0.80566,0.53711 -0.26856,0.32959 -0.40283,0.65918 -0.12207,0.329589 -0.12207,0.646972 0,0.610352 0.32959,1.074219 0.34179,0.45166 0.85449,0.683594 0.50049,0.231933 1.63574,0.402832 1.14746,0.158691 1.9165,0.439453 1.07422,0.402832 1.80664,1.306152 0.73243,0.90332 0.73243,2.136231 0,1.550293 -1.25733,2.709961 -1.25732,1.159668 -3.44238,1.159668 -2.05078,0 -4.61426,-1.135254 l 0.65918,-1.525879 q 2.27051,1.02539 3.95508,1.02539 0.75683,0 1.33057,-0.207519 0.58593,-0.20752 0.90332,-0.549317 0.31738,-0.341796 0.47607,-0.708007 0.15869,-0.378418 0.15869,-0.769043 0,-0.695801 -0.41504,-1.208496 -0.41504,-0.512696 -1.02539,-0.744629 -0.41504,-0.158692 -1.67236,-0.354004 -1.25733,-0.195313 -2.00195,-0.53711 -0.93995,-0.439453 -1.5503,-1.269531 -0.61035,-0.830078 -0.61035,-1.928711 0,-1.501465 1.19629,-2.58789 1.2085,-1.098633 3.21045,-1.098633 z"
         style="font-size:25px"
         id="path3529"
         inkscape:connector-curvature="0" />
    </g>
    <g
       style="font-style:normal;font-variant:normal;font-weight:normal;font-stretch:normal;font-size:20px;line-height:125%;font-family:Gidole;-inkscape-font-specification:'Gidole, Normal';text-align:start;letter-spacing:0px;word-spacing:0px;writing-mode:lr-tb;text-anchor:start;fill:#000000;fill-opacity:1;stroke:none;stroke-width:1px;stroke-linecap:butt;stroke-linejoin:miter;stroke-opacity:1"
       id="TEXT8">
      <path
         d="m 208.32178,134.4279 q 2.01416,0 3.9917,1.23291 l -0.8667,1.44043 q -1.59912,-1.0376 -3.125,-1.0376 -1.59912,0 -2.49024,1.28174 -0.31738,0.46387 -0.47607,1.22071 -0.15869,0.74463 -0.18311,1.24511 -0.0244,0.50049 -0.0244,1.34278 0,0.95215 0.0122,1.46484 0.0244,0.50049 0.17089,1.2085 0.14649,0.708 0.43946,1.19629 0.42724,0.708 1.11084,1.03759 0.68359,0.32959 1.44043,0.32959 0.83008,0 1.7334,-0.31738 0.91552,-0.31738 1.59912,-0.78125 l 0.92773,1.3916 q -0.8667,0.58594 -2.01416,0.96436 -1.14746,0.37842 -2.24609,0.37842 -1.3916,0 -2.49024,-0.61036 -1.09863,-0.62255 -1.67236,-1.62353 -0.39063,-0.68359 -0.58594,-1.50147 -0.19531,-0.83007 -0.23193,-1.42822 -0.0244,-0.61035 -0.0244,-1.70898 0,-0.95215 0.0244,-1.52588 0.0366,-0.58594 0.23193,-1.45264 0.19531,-0.8667 0.58594,-1.51367 0.59814,-1.00098 1.67236,-1.61133 1.08643,-0.62256 2.49024,-0.62256 z"
         style="font-size:25px"
         id="path3532"
         inkscape:connector-curvature="0" />
      <path
         d="m 222.35986,137.028 q -0.84228,-0.96436 -2.4292,-0.96436 -1.58691,0 -2.4292,0.96436 -0.32959,0.37842 -0.5371,0.85449 -0.19532,0.46387 -0.28077,1.09864 -0.0732,0.62255 -0.0977,1.0498 -0.0122,0.41504 -0.0122,1.19629 0,0.78125 0.0122,1.2085 0.0244,0.41503 0.0977,1.0498 0.0854,0.62256 0.28077,1.09863 0.20751,0.46387 0.5371,0.84229 0.84229,0.96435 2.4292,0.96435 1.58692,0 2.4292,-0.96435 0.32959,-0.37842 0.52491,-0.84229 0.20752,-0.47607 0.28076,-1.09863 0.0855,-0.63477 0.0977,-1.0498 0.0244,-0.42725 0.0244,-1.2085 0,-0.78125 -0.0244,-1.19629 -0.0122,-0.42725 -0.0977,-1.0498 -0.0732,-0.63477 -0.28076,-1.09864 -0.19532,-0.47607 -0.52491,-0.85449 z m -4.62646,-2.17285 q 0.98877,-0.42725 2.19726,-0.42725 1.2085,0 2.19727,0.42725 0.98877,0.41504 1.62353,1.11084 0.48829,0.53711 0.78125,1.17187 0.30518,0.62256 0.41504,1.40381 0.12207,0.76905 0.14649,1.28174 0.0244,0.50049 0.0244,1.40381 0,0.90332 -0.0244,1.41601 -0.0244,0.50049 -0.14649,1.28174 -0.10986,0.76905 -0.41504,1.40381 -0.29296,0.62256 -0.78125,1.15967 -0.63476,0.6958 -1.62353,1.12305 -0.98877,0.41504 -2.19727,0.41504 -1.20849,0 -2.19726,-0.41504 -0.98877,-0.42725 -1.62354,-1.12305 -0.48828,-0.53711 -0.79345,-1.15967 -0.29297,-0.63476 -0.41504,-1.40381 -0.10987,-0.78125 -0.13428,-1.28174 -0.0244,-0.51269 -0.0244,-1.41601 0,-0.90332 0.0244,-1.40381 0.0244,-0.51269 0.13428,-1.28174 0.12207,-0.78125 0.41504,-1.40381 0.30517,-0.63476 0.79345,-1.17187 0.63477,-0.6958 1.62354,-1.11084 z"
         style="font-size:25px"
         id="path3534"
         inkscape:connector-curvature="0" />
      <path
         d="m 233.78564,134.4279 q 1.35498,0 2.45362,0.72022 1.11084,0.70801 1.62353,1.98974 0.18311,0.43946 0.26856,1.00098 0.0855,0.56152 0.0977,0.95215 0.0122,0.37842 0.0122,1.11084 l 0,7.62939 -1.83105,0 0,-7.50732 q 0,-1.15967 -0.0488,-1.67236 -0.0488,-0.52491 -0.26856,-1.00098 -0.34179,-0.75684 -1.06201,-1.17188 -0.70801,-0.41504 -1.61133,-0.41504 -0.90332,0 -1.62353,0.41504 -0.70801,0.41504 -1.04981,1.17188 -0.21972,0.47607 -0.26855,1.00098 -0.0488,0.51269 -0.0488,1.67236 l 0,7.50732 -1.83105,0 0,-13.208 1.83105,0 0,1.3916 q 1.44043,-1.58692 3.35693,-1.58692 z"
         style="font-size:25px"
         id="path3536"
         inkscape:connector-curvature="0" />
      <path
         d="m 242.3916,144.13249 0,-7.9956 -1.83105,0 0,-1.51367 1.83105,0 0,-2.85645 1.83106,0 0,2.85645 2.4414,0 0,1.51367 -2.4414,0 0,7.9956 q 0,1.31836 0.10986,1.58692 0.28076,0.67138 1.0498,0.67138 0.63477,0 1.39161,-0.39062 l 0.708,1.51367 q -1.17187,0.5127 -2.22168,0.5127 -1.03759,0 -1.75781,-0.50049 -0.70801,-0.50049 -0.97656,-1.42823 -0.13428,-0.46386 -0.13428,-1.96533 z"
         style="font-size:25px"
         id="path3538"
         inkscape:connector-curvature="0" />
      <path
         d="m 251.08301,143.91277 q 0,1.03759 0.68359,1.75781 0.6958,0.72021 1.94092,0.72021 1.00098,0 1.78223,-0.48828 0.78125,-0.48828 1.09863,-1.47705 0.10986,-0.354 0.15869,-0.81787 0.061,-0.46387 0.061,-0.8667 0.0122,-0.41504 0.0122,-1.34277 l -1.77002,0 q -1.75781,0 -2.31933,0.1709 -0.79346,0.24414 -1.22071,0.8789 -0.42724,0.62256 -0.42724,1.46485 z m 7.56836,-4.02832 0,7.94677 -1.83106,0 0,-1.40381 q -1.3916,1.59913 -3.35693,1.59913 -1.85547,0 -3.03955,-1.17188 -1.17188,-1.18408 -1.17188,-2.94189 0,-1.31836 0.74463,-2.33155 0.75684,-1.02539 2.12403,-1.44043 0.40283,-0.12207 0.89111,-0.1831 0.48828,-0.061 0.85449,-0.061 0.36621,-0.0122 1.11084,-0.0122 l 1.84326,0 q 0,-0.97657 -0.0366,-1.39161 -0.0244,-0.42724 -0.15869,-0.78125 -0.30518,-0.81787 -1.02539,-1.23291 -0.72022,-0.41504 -1.64795,-0.41504 -1.35498,0 -3.21045,0.89112 l -0.6958,-1.51367 q 2.22168,-1.01319 3.90625,-1.01319 1.62354,0 2.84424,0.78125 1.2207,0.78125 1.66015,2.23389 0.19532,0.64697 0.19532,2.44141 z"
         style="font-size:25px"
         id="path3540"
         inkscape:connector-curvature="0" />
      <path
         d="m 267.01318,134.4279 q 2.01416,0 3.9917,1.23291 l -0.8667,1.44043 q -1.59912,-1.0376 -3.125,-1.0376 -1.59912,0 -2.49023,1.28174 -0.31738,0.46387 -0.47608,1.22071 -0.15869,0.74463 -0.1831,1.24511 -0.0244,0.50049 -0.0244,1.34278 0,0.95215 0.0122,1.46484 0.0244,0.50049 0.1709,1.2085 0.14649,0.708 0.43945,1.19629 0.42725,0.708 1.11084,1.03759 0.6836,0.32959 1.44043,0.32959 0.83008,0 1.7334,-0.31738 0.91553,-0.31738 1.59912,-0.78125 l 0.92774,1.3916 q -0.8667,0.58594 -2.01416,0.96436 -1.14746,0.37842 -2.2461,0.37842 -1.3916,0 -2.49023,-0.61036 -1.09863,-0.62255 -1.67236,-1.62353 -0.39063,-0.68359 -0.58594,-1.50147 -0.19531,-0.83007 -0.23194,-1.42822 -0.0244,-0.61035 -0.0244,-1.70898 0,-0.95215 0.0244,-1.52588 0.0366,-0.58594 0.23194,-1.45264 0.19531,-0.8667 0.58594,-1.51367 0.59814,-1.00098 1.67236,-1.61133 1.08642,-0.62256 2.49023,-0.62256 z"
         style="font-size:25px"
         id="path3542"
         inkscape:connector-curvature="0" />
      <path
         d="m 274.56934,144.13249 0,-7.9956 -1.83106,0 0,-1.51367 1.83106,0 0,-2.85645 1.83105,0 0,2.85645 2.44141,0 0,1.51367 -2.44141,0 0,7.9956 q 0,1.31836 0.10986,1.58692 0.28077,0.67138 1.04981,0.67138 0.63476,0 1.3916,-0.39062 l 0.70801,1.51367 q -1.17188,0.5127 -2.22168,0.5127 -1.0376,0 -1.75781,-0.50049 -0.70801,-0.50049 -0.97657,-1.42823 -0.13427,-0.46386 -0.13427,-1.96533 z"
         style="font-size:25px"
         id="path3544"
         inkscape:connector-curvature="0" />
    </g>
    <g
       transform="translate(-2.1278167e-6,-3.5320582)"
       style="font-style:normal;font-variant:normal;font-weight:normal;font-stretch:normal;font-size:20px;line-height:125%;font-family:Gidole;-inkscape-font-specification:'Gidole, Normal';text-align:start;letter-spacing:0px;word-spacing:0px;writing-mode:lr-tb;text-anchor:start;fill:#000000;fill-opacity:1;stroke:none;stroke-width:1px;stroke-linecap:butt;stroke-linejoin:miter;stroke-opacity:1"
       id="flowRoot3546">
      <path
         d="m 203.87109,202.05028 q 6.9043,0 12.78321,4.13574 l -2.73438,4.10156 q -4.85351,-3.45215 -10.04883,-3.45215 -7.10937,0 -9.63867,5.81055 -1.09375,2.49512 -1.40137,5.91309 -0.30761,3.41796 -0.30761,8.33984 0,4.92187 0.30761,8.33984 0.30762,3.41797 1.40137,5.91309 2.5293,5.81055 9.63867,5.81055 6.28907,0 11.07422,-4.06739 l 3.00781,3.96485 q -6.2207,4.88769 -14.08203,4.88769 -5.29785,0 -9.05761,-2.3584 -3.72559,-2.3584 -5.53711,-6.42578 -0.92285,-2.05078 -1.43555,-4.99023 -0.47852,-2.97364 -0.58105,-5.22949 -0.0684,-2.29004 -0.0684,-5.84473 0,-5.46875 0.37597,-9.33106 0.41016,-3.8623 1.70899,-6.73339 1.87988,-4.10157 5.60547,-6.42579 3.75976,-2.35839 8.98925,-2.35839 z"
         style="font-size:70px"
         id="path3409" />
      <path
         d="m 231.48828,218.01219 q 3.72559,-4.44336 8.71582,-4.44336 1.40137,0 3.14453,0.37598 l -0.75195,4.51172 q -2.15332,-0.30762 -3.07617,-0.30762 -2.59766,0 -4.51172,1.23047 -1.91406,1.23047 -2.76856,3.31543 -0.75195,1.81152 -0.75195,6.42578 l 0,21.97754 -5.12695,0 0,-36.98242 5.12695,0 0,3.89648 z"
         style="font-size:70px"
         id="path3411" />
      <path
         d="m 262.79687,251.645 q -3.96484,0 -7.00683,-1.46972 -3.04199,-1.50391 -4.81934,-4.10157 -1.26465,-1.81152 -1.91406,-4.30664 -0.61523,-2.49511 -0.71777,-4.2041 -0.0684,-1.74316 -0.0684,-4.95605 0,-2.63184 0.0342,-3.96485 0.0684,-1.36718 0.34179,-3.28125 0.30762,-1.94824 0.88868,-3.5205 1.43554,-3.75977 4.78515,-6.01563 3.38379,-2.25586 7.79297,-2.25586 4.34082,0 7.72461,2.29004 3.41797,2.25586 4.8877,6.01562 0.85449,2.15333 1.02539,4.30665 0.20507,2.11914 0.20507,6.3916 l 0,1.12793 -22.55859,0 q 0,2.22168 0.0684,3.58886 0.0684,1.33301 0.5127,3.24707 0.47851,1.87989 1.36718,3.14454 2.3584,3.38378 7.45117,3.38378 4.5459,0 9.7754,-2.49511 l 1.94824,4.23828 q -6.04981,2.83691 -11.72364,2.83691 z m 8.03223,-22.18261 q -0.0684,-3.89649 -0.99121,-6.18653 -0.92285,-2.3584 -3.00781,-3.72558 -2.05078,-1.40137 -4.7168,-1.40137 -2.76855,0 -4.78516,1.40137 -2.0166,1.36718 -2.90527,3.6914 -0.92285,2.39258 -0.99121,6.22071 l 17.39746,0 z"
         style="font-size:70px"
         id="path3413" />
      <path
         d="m 288.5,240.12645 q 0,2.90527 1.91406,4.92187 1.94824,2.0166 5.43457,2.0166 2.80274,0 4.99024,-1.36718 2.1875,-1.36719 3.07617,-4.13575 0.30762,-0.99121 0.44433,-2.29003 0.1709,-1.29883 0.1709,-2.42676 0.0342,-1.16211 0.0342,-3.75977 l -4.95605,0 q -4.92188,0 -6.49414,0.47852 -2.22168,0.68359 -3.41797,2.46094 -1.19629,1.74316 -1.19629,4.10156 z m 21.19141,-11.2793 0,22.25098 -5.12696,0 0,-3.93067 q -3.89648,4.47754 -9.39941,4.47754 -5.19531,0 -8.51074,-3.28125 -3.28125,-3.31543 -3.28125,-8.2373 0,-3.69141 2.08496,-6.52832 2.11914,-2.8711 5.94726,-4.03321 1.12793,-0.34179 2.49512,-0.51269 1.36719,-0.1709 2.39258,-0.1709 1.02539,-0.0342 3.11035,-0.0342 l 5.16113,0 q 0,-2.73437 -0.10254,-3.89648 -0.0684,-1.19629 -0.44433,-2.1875 -0.85449,-2.29004 -2.8711,-3.45215 -2.0166,-1.16211 -4.61425,-1.16211 -3.79395,0 -8.98926,2.49512 l -1.94824,-4.23829 q 6.2207,-2.83691 10.9375,-2.83691 4.54589,0 7.96386,2.1875 3.41797,2.1875 4.64844,6.25488 0.54688,1.81153 0.54688,6.83594 z"
         style="font-size:70px"
         id="path3415" />
      <path
         d="m 321.3125,240.74168 0,-22.38769 -5.12695,0 0,-4.23828 5.12695,0 0,-7.99805 5.12695,0 0,7.99805 6.83594,0 0,4.23828 -6.83594,0 0,22.38769 q 0,3.69141 0.30762,4.44336 0.78613,1.87988 2.93945,1.87988 1.77735,0 3.89649,-1.09375 l 1.98242,4.23829 q -3.28125,1.43554 -6.2207,1.43554 -2.90528,0 -4.92188,-1.40136 -1.98242,-1.40137 -2.73437,-3.99903 -0.37598,-1.29883 -0.37598,-5.50293 z"
         style="font-size:70px"
         id="path3417" />
      <path
         d="m 342.98242,202.97313 q 0.92285,-0.92285 2.32422,-0.92285 1.40137,0 2.29004,0.92285 0.92285,0.88867 0.92285,2.29004 0,1.40136 -0.92285,2.32422 -0.88867,0.88867 -2.29004,0.88867 -1.40137,0 -2.32422,-0.88867 -0.88867,-0.92286 -0.88867,-2.32422 0,-1.40137 0.88867,-2.29004 z m 4.8877,48.125 -5.12696,0 0,-36.98242 5.12696,0 0,36.98242 z"
         style="font-size:70px"
         id="path3419" />
      <path
         d="m 367.96777,251.09813 -12.40722,-36.98242 5.36621,0 9.50195,30.41992 9.50195,-30.41992 5.36621,0 -12.40722,36.98242 -4.92188,0 z"
         style="font-size:70px"
         id="path3421" />
      <path
         d="m 405.53125,251.645 q -3.96484,0 -7.00684,-1.46972 -3.04199,-1.50391 -4.81933,-4.10157 -1.26465,-1.81152 -1.91406,-4.30664 -0.61524,-2.49511 -0.71778,-4.2041 -0.0684,-1.74316 -0.0684,-4.95605 0,-2.63184 0.0342,-3.96485 0.0684,-1.36718 0.3418,-3.28125 0.30762,-1.94824 0.88867,-3.5205 1.43555,-3.75977 4.78516,-6.01563 3.38379,-2.25586 7.79297,-2.25586 4.34082,0 7.72461,2.29004 3.41796,2.25586 4.88769,6.01562 0.85449,2.15333 1.02539,4.30665 0.20508,2.11914 0.20508,6.3916 l 0,1.12793 -22.55859,0 q 0,2.22168 0.0684,3.58886 0.0684,1.33301 0.51269,3.24707 0.47852,1.87989 1.36719,3.14454 2.3584,3.38378 7.45117,3.38378 4.5459,0 9.77539,-2.49511 l 1.94824,4.23828 q -6.0498,2.83691 -11.72363,2.83691 z m 8.03223,-22.18261 q -0.0684,-3.89649 -0.99121,-6.18653 -0.92286,-2.3584 -3.00782,-3.72558 -2.05078,-1.40137 -4.71679,-1.40137 -2.76856,0 -4.78516,1.40137 -2.0166,1.36718 -2.90527,3.6914 -0.92286,2.39258 -0.99121,6.22071 l 17.39746,0 z"
         style="font-size:70px"
         id="path3423" />
      <path
         d="m 449.21289,202.69969 26.66016,0 0,4.78516 -21.32813,0 0,16.54297 18.25195,0 0,4.78515 -18.25195,0 0,17.5 21.32813,0 0,4.78516 -26.66016,0 0,-48.39844 z"
         style="font-size:70px"
         id="path3425" />
      <path
         d="m 511.76172,251.09813 -5.12695,0 0,-21.77246 q 0,-2.11914 -0.0342,-3.07618 -0.0342,-0.99121 -0.23926,-2.15332 -0.20508,-1.1621 -0.61524,-2.0166 -0.88867,-1.8457 -2.73437,-2.87109 -1.81152,-1.05957 -4.06738,-1.05957 -2.25586,0 -4.10157,1.05957 -1.81152,1.02539 -2.70019,2.87109 -0.41016,0.8545 -0.61524,2.0166 -0.20507,1.16211 -0.23925,2.15332 -0.0342,0.95704 -0.0342,3.07618 l 0,21.77246 -5.12696,0 0,-36.98242 5.12696,0 0,3.79394 q 3.75976,-4.34082 8.71582,-4.34082 3.38379,0 5.94726,1.57227 2.56348,1.53808 3.96485,4.27246 1.81152,-2.73438 4.54589,-4.27246 2.73438,-1.57227 6.04981,-1.57227 3.72558,0 6.63086,1.98242 2.93945,1.98242 4.23828,5.46875 0.44434,1.16211 0.64941,2.63184 0.20508,1.43555 0.23926,2.42676 0.0342,0.99121 0.0342,2.90527 l 0,22.11426 -5.12695,0 0,-21.77246 q 0,-2.11914 -0.0342,-3.07618 -0.0342,-0.99121 -0.23926,-2.15332 -0.20508,-1.1621 -0.61523,-2.0166 -0.88868,-1.8457 -2.73438,-2.87109 -1.81152,-1.05957 -4.06738,-1.05957 -2.25586,0 -4.10156,1.05957 -1.81153,1.02539 -2.7002,2.87109 -0.41016,0.8545 -0.61523,2.0166 -0.20508,1.16211 -0.23926,2.15332 -0.0342,0.95704 -0.0342,3.07618 l 0,21.77246 z"
         style="font-size:70px"
         id="path3427" />
      <path
         d="m 557.7334,213.56883 q 3.48633,0 6.32324,1.50391 2.83691,1.5039 4.44336,3.96484 1.70898,2.63184 2.22168,5.67383 0.51269,3.00781 0.51269,7.89551 0,4.88769 -0.51269,7.92968 -0.5127,3.00782 -2.22168,5.63965 -1.60645,2.46094 -4.44336,3.96485 -2.83691,1.5039 -6.32324,1.5039 -5.70801,0 -9.74121,-4.47754 l 0,3.93067 -5.12696,0 0,-51.13281 5.12696,0 0,18.08105 q 4.0332,-4.47754 9.74121,-4.47754 z m 6.32324,7.92969 q -2.42676,-3.34961 -7.00684,-3.34961 -4.58007,0 -7.00683,3.34961 -1.29883,1.77734 -1.67481,4.30664 -0.37597,2.5293 -0.37597,6.80176 0,4.27246 0.37597,6.80175 0.37598,2.5293 1.67481,4.30665 2.42676,3.3496 7.00683,3.3496 4.58008,0 7.00684,-3.3496 1.29883,-1.77735 1.67481,-4.30665 0.37597,-2.52929 0.37597,-6.80175 0,-4.27246 -0.37597,-6.80176 -0.37598,-2.5293 -1.67481,-4.30664 z"
         style="font-size:70px"
         id="path3429" />
      <path
         d="m 594.33984,251.645 q -3.96484,0 -7.00683,-1.46972 -3.04199,-1.50391 -4.81934,-4.10157 -1.26465,-1.81152 -1.91406,-4.30664 -0.61524,-2.49511 -0.71777,-4.2041 -0.0684,-1.74316 -0.0684,-4.95605 0,-2.63184 0.0342,-3.96485 0.0684,-1.36718 0.34179,-3.28125 0.30762,-1.94824 0.88867,-3.5205 1.43555,-3.75977 4.78516,-6.01563 3.38379,-2.25586 7.79297,-2.25586 4.34082,0 7.72461,2.29004 3.41797,2.25586 4.88769,6.01562 0.8545,2.15333 1.0254,4.30665 0.20507,2.11914 0.20507,6.3916 l 0,1.12793 -22.55859,0 q 0,2.22168 0.0684,3.58886 0.0684,1.33301 0.51269,3.24707 0.47852,1.87989 1.36719,3.14454 2.3584,3.38378 7.45117,3.38378 4.5459,0 9.77539,-2.49511 l 1.94825,4.23828 q -6.04981,2.83691 -11.72364,2.83691 z m 8.03223,-22.18261 q -0.0684,-3.89649 -0.99121,-6.18653 -0.92285,-2.3584 -3.00781,-3.72558 -2.05078,-1.40137 -4.7168,-1.40137 -2.76855,0 -4.78516,1.40137 -2.0166,1.36718 -2.90527,3.6914 -0.92285,2.39258 -0.99121,6.22071 l 17.39746,0 z"
         style="font-size:70px"
         id="path3431" />
      <path
         d="m 629.4082,213.56883 q 5.70801,0 9.74121,4.47754 l 0,-18.08105 5.12696,0 0,51.13281 -5.12696,0 0,-3.93067 q -4.0332,4.47754 -9.74121,4.47754 -3.48633,0 -6.32324,-1.5039 -2.83691,-1.50391 -4.44336,-3.96485 -1.70898,-2.63183 -2.22168,-5.63965 -0.51269,-3.04199 -0.51269,-7.92968 0,-4.8877 0.51269,-7.89551 0.5127,-3.04199 2.22168,-5.67383 1.60645,-2.46094 4.44336,-3.96484 2.83691,-1.50391 6.32324,-1.50391 z m 7.69043,7.92969 q -2.42676,-3.34961 -7.00683,-3.34961 -4.58008,0 -7.00684,3.34961 -1.29883,1.77734 -1.6748,4.30664 -0.37598,2.5293 -0.37598,6.80176 0,4.27246 0.37598,6.80175 0.37597,2.5293 1.6748,4.30665 2.42676,3.3496 7.00684,3.3496 4.58007,0 7.00683,-3.3496 1.29883,-1.77735 1.67481,-4.30665 0.37597,-2.52929 0.37597,-6.80175 0,-4.27246 -0.37597,-6.80176 -0.37598,-2.5293 -1.67481,-4.30664 z"
         style="font-size:70px"
         id="path3433" />
      <path
         d="m 666.86914,213.56883 q 5.70801,0 9.74121,4.47754 l 0,-18.08105 5.12695,0 0,51.13281 -5.12695,0 0,-3.93067 q -4.0332,4.47754 -9.74121,4.47754 -3.48633,0 -6.32324,-1.5039 -2.83692,-1.50391 -4.44336,-3.96485 -1.70899,-2.63183 -2.22168,-5.63965 -0.5127,-3.04199 -0.5127,-7.92968 0,-4.8877 0.5127,-7.89551 0.51269,-3.04199 2.22168,-5.67383 1.60644,-2.46094 4.44336,-3.96484 2.83691,-1.50391 6.32324,-1.50391 z m 7.69043,7.92969 q -2.42676,-3.34961 -7.00684,-3.34961 -4.58007,0 -7.00683,3.34961 -1.29883,1.77734 -1.67481,4.30664 -0.37597,2.5293 -0.37597,6.80176 0,4.27246 0.37597,6.80175 0.37598,2.5293 1.67481,4.30665 2.42676,3.3496 7.00683,3.3496 4.58008,0 7.00684,-3.3496 1.29883,-1.77735 1.6748,-4.30665 0.37598,-2.52929 0.37598,-6.80175 0,-4.27246 -0.37598,-6.80176 -0.37597,-2.5293 -1.6748,-4.30664 z"
         style="font-size:70px"
         id="path3435" />
      <path
         d="m 705.35547,251.645 q -3.96485,0 -7.00684,-1.46972 -3.04199,-1.50391 -4.81933,-4.10157 -1.26465,-1.81152 -1.91407,-4.30664 -0.61523,-2.49511 -0.71777,-4.2041 -0.0684,-1.74316 -0.0684,-4.95605 0,-2.63184 0.0342,-3.96485 0.0684,-1.36718 0.3418,-3.28125 0.30762,-1.94824 0.88867,-3.5205 1.43555,-3.75977 4.78516,-6.01563 3.38379,-2.25586 7.79296,-2.25586 4.34083,0 7.72461,2.29004 3.41797,2.25586 4.8877,6.01562 0.85449,2.15333 1.02539,4.30665 0.20508,2.11914 0.20508,6.3916 l 0,1.12793 -22.5586,0 q 0,2.22168 0.0684,3.58886 0.0684,1.33301 0.5127,3.24707 0.47851,1.87989 1.36719,3.14454 2.3584,3.38378 7.45117,3.38378 4.5459,0 9.77539,-2.49511 l 1.94824,4.23828 q -6.0498,2.83691 -11.72363,2.83691 z m 8.03223,-22.18261 q -0.0684,-3.89649 -0.99122,-6.18653 -0.92285,-2.3584 -3.00781,-3.72558 -2.05078,-1.40137 -4.7168,-1.40137 -2.76855,0 -4.78515,1.40137 -2.0166,1.36718 -2.90527,3.6914 -0.92286,2.39258 -0.99122,6.22071 l 17.39747,0 z"
         style="font-size:70px"
         id="path3437" />
      <path
         d="m 740.42383,213.56883 q 5.70801,0 9.74121,4.47754 l 0,-18.08105 5.12695,0 0,51.13281 -5.12695,0 0,-3.93067 q -4.0332,4.47754 -9.74121,4.47754 -3.48633,0 -6.32324,-1.5039 -2.83692,-1.50391 -4.44336,-3.96485 -1.70899,-2.63183 -2.22168,-5.63965 -0.5127,-3.04199 -0.5127,-7.92968 0,-4.8877 0.5127,-7.89551 0.51269,-3.04199 2.22168,-5.67383 1.60644,-2.46094 4.44336,-3.96484 2.83691,-1.50391 6.32324,-1.50391 z m 7.69043,7.92969 q -2.42676,-3.34961 -7.00684,-3.34961 -4.58008,0 -7.00683,3.34961 -1.29883,1.77734 -1.67481,4.30664 -0.37598,2.5293 -0.37598,6.80176 0,4.27246 0.37598,6.80175 0.37598,2.5293 1.67481,4.30665 2.42675,3.3496 7.00683,3.3496 4.58008,0 7.00684,-3.3496 1.29883,-1.77735 1.6748,-4.30665 0.37598,-2.52929 0.37598,-6.80175 0,-4.27246 -0.37598,-6.80176 -0.37597,-2.5293 -1.6748,-4.30664 z"
         style="font-size:70px"
         id="path3439" />
    </g>
    <flowRoot
       xml:space="preserve"
       id="flowRoot3554"
       style="font-style:normal;font-variant:normal;font-weight:normal;font-stretch:normal;font-size:20px;line-height:125%;font-family:Gidole;-inkscape-font-specification:'Gidole, Normal';text-align:start;letter-spacing:0px;word-spacing:0px;writing-mode:lr-tb;text-anchor:start;fill:#000000;fill-opacity:1;stroke:none;stroke-width:1px;stroke-linecap:butt;stroke-linejoin:miter;stroke-opacity:1"
       transform="translate(-2.1278167e-6,-3.5320582)"><flowRegion
         id="flowRegion3556"><rect
           id="rect3558"
           width="0.77217871"
           height="20.591433"
           x="496.76831"
           y="137.19041" /></flowRegion><flowPara
         id="flowPara3560" /></flowRoot>    <rect
       id="rect5"
       width="109.72765"
       height="32.918297"
       x="121.26855"
       y="-9.1207085"
       onclick="parent.selectOneDiv(&quot;div5&quot;)"
       inkscape:label="#rect5"
       style="opacity:0;fill:#000000;fill-opacity:1"
       onmouseover=""
       onmouseout=""
       cursor="pointer" />
    <rect
       id="rect6"
       width="138.92618"
       height="32.918301"
       x="159.23271"
       y="24.516804"
       onclick="parent.selectOneDiv(&quot;div6&quot;)"
       inkscape:label="#rect6"
       style="opacity:0;fill:#000000;fill-opacity:1"
       onmouseover=""
       onmouseout=""
       cursor="pointer" />
    <rect
       id="rect7"
       width="123.44564"
       height="32.918304"
       x="186.97299"
       y="72.516808"
       onclick="parent.selectOneDiv(&quot;div7&quot;)"
       inkscape:label="#rect7"
       style="opacity:0;fill:#000000;fill-opacity:1"
       onmouseover=""
       onmouseout=""
       cursor="pointer" />
    <rect
       id="rect8"
       width="123.44564"
       height="32.918308"
       x="176.97299"
       y="124.51681"
       onclick="parent.selectOneDiv(&quot;div8&quot;)"
       inkscape:label="#rect8"
       style="opacity:0;fill:#000000;fill-opacity:1"
       onmouseover=""
       onmouseout=""
       cursor="pointer" />
  </g>
</svg>
