<?xml version="1.0" encoding="UTF-8" standalone="no"?>
<!-- Creator: CorelDRAW -->

<svg
   xmlns:dc="http://purl.org/dc/elements/1.1/"
   xmlns:cc="http://creativecommons.org/ns#"
   xmlns:rdf="http://www.w3.org/1999/02/22-rdf-syntax-ns#"
   xmlns:svg="http://www.w3.org/2000/svg"
   xmlns="http://www.w3.org/2000/svg"
   xmlns:sodipodi="http://sodipodi.sourceforge.net/DTD/sodipodi-0.dtd"
   xmlns:inkscape="http://www.inkscape.org/namespaces/inkscape"
   xml:space="preserve"
   width="94.4606mm"
   height="94.4606mm"
   style="shape-rendering:geometricPrecision; text-rendering:geometricPrecision; image-rendering:optimizeQuality; fill-rule:evenodd; clip-rule:evenodd"
   viewBox="0 0 58.282 58.282"
   id="svg2"
   version="1.1"
   inkscape:version="0.91 r13725"
   sodipodi:docname="phone_icon.svg"><metadata
     id="metadata18"><rdf:RDF><cc:Work
         rdf:about=""><dc:format>image/svg+xml</dc:format><dc:type
           rdf:resource="http://purl.org/dc/dcmitype/StillImage" /></cc:Work></rdf:RDF></metadata><sodipodi:namedview
     pagecolor="#ffffff"
     bordercolor="#666666"
     borderopacity="1"
     objecttolerance="10"
     gridtolerance="10"
     guidetolerance="10"
     inkscape:pageopacity="0"
     inkscape:pageshadow="2"
     inkscape:window-width="1280"
     inkscape:window-height="752"
     id="namedview16"
     showgrid="false"
     inkscape:zoom="0.7051029"
     inkscape:cx="167.35146"
     inkscape:cy="110.62215"
     inkscape:window-x="0"
     inkscape:window-y="1"
     inkscape:window-maximized="1"
     inkscape:current-layer="svg2" /><defs
     id="defs4"><style
       type="text/css"
       id="style6"><![CDATA[
    .fil0 {fill:#1B1C1F}
    .fil1 {fill:#1B1C1F;fill-rule:nonzero}
   ]]></style></defs><path
     style="fill:#1b1c1f;fill-rule:nonzero;fill-opacity:1"
     d="M 167.3457 0 L 167.3457 0.0390625 C 121.11774 0.040440776 79.284298 18.760971 49.023438 49.021484 C 18.761142 79.283263 0.039771164 121.11814 0.0390625 167.34766 L 0 167.34766 L 0 167.35156 L 0 167.35547 L 0.0390625 167.35547 C 0.040440776 213.58343 18.760971 255.41843 49.021484 285.67969 C 79.283266 315.94198 121.11814 334.66336 167.34766 334.66406 L 167.34766 334.70312 L 167.35156 334.70312 L 167.35547 334.70312 L 167.35547 334.66406 C 213.58343 334.66268 255.41843 315.94216 285.67969 285.68164 C 315.94198 255.41986 334.66335 213.58335 334.66406 167.35352 L 334.70312 167.35352 L 334.70312 167.35156 L 334.70312 167.3457 L 334.66406 167.3457 C 334.66268 121.11774 315.94216 79.284295 285.68164 49.023438 C 255.41986 18.761142 213.58301 0.039771164 167.35352 0.0390625 L 167.35352 0 L 167.35156 0 L 167.3457 0 z M 134.08398 53.605469 C 136.59828 53.542577 139.07255 54.818857 140.41406 57.142578 L 170.33203 108.96094 C 172.28333 112.34054 171.11789 116.68933 167.73828 118.64062 L 152.01562 127.71875 C 148.63602 129.67005 144.28562 128.50691 142.33398 125.12695 L 112.41797 73.308594 C 110.46632 69.928279 111.62981 65.578592 115.00977 63.626953 L 130.73438 54.548828 C 131.79061 53.938937 132.94112 53.634056 134.08398 53.605469 z M 107.16016 74.244141 C 113.23835 84.771643 132.81639 118.68303 138.89453 129.21094 C 107.61599 147.2694 155.33915 236.73955 189.56641 216.97852 C 195.6446 227.50636 215.22264 261.4158 221.30078 271.94336 C 206.85966 280.28113 194.63703 285.53761 177.89453 275.9668 C 131.40883 249.39306 80.23951 160.79957 81.695312 107.95703 C 82.200968 89.603047 93.015647 82.410426 107.16016 74.244141 z M 215.81445 195.16797 C 218.32875 195.10517 220.80497 196.38355 222.14648 198.70703 L 252.0625 250.52344 C 254.0138 253.9034 252.85031 258.25378 249.4707 260.20508 L 233.74609 269.2832 C 230.36649 271.2345 226.01805 270.06976 224.06641 266.68945 L 194.14844 214.87109 C 192.19679 211.49114 193.36223 207.1427 196.74219 205.19141 L 212.46484 196.11328 C 213.52108 195.5035 214.67159 195.19651 215.81445 195.16797 z "
     transform="scale(0.17413054,0.17413054)"
     id="path14" /><g
     id="_152222920" /></svg>